<svg id="svg" version="1.1" xmlns="http://www.w3.org/2000/svg" xmlns:xlink="http://www.w3.org/1999/xlink" width="400" height="124.85981308411215" viewBox="0, 0, 400,124.85981308411215"><g id="svgg"><path id="path0" d="M33.619 34.333 C 29.858 34.399,28.791 34.465,28.683 34.640 C 28.607 34.763,28.491 38.625,28.426 43.223 C 28.303 51.797,28.359 52.909,28.925 53.250 C 30.536 54.221,32.013 55.405,32.338 55.986 C 32.789 56.792,32.704 71.711,32.244 72.494 C 31.776 73.290,31.718 73.298,26.000 73.316 C 18.481 73.341,19.167 74.297,19.167 63.782 L 19.167 55.975 19.610 55.612 C 19.853 55.413,20.320 54.997,20.647 54.687 C 20.974 54.378,21.656 53.927,22.161 53.684 C 22.898 53.331,23.102 53.144,23.188 52.747 C 23.407 51.723,23.342 35.278,23.117 34.833 L 22.907 34.417 16.126 34.417 C 10.218 34.417,9.312 34.450,9.086 34.675 C 8.865 34.896,8.791 36.249,8.578 43.925 C 8.441 48.871,8.256 53.704,8.167 54.667 C 8.079 55.629,7.927 57.354,7.830 58.500 C 7.732 59.646,7.580 61.183,7.491 61.917 C 7.402 62.650,7.258 66.175,7.171 69.750 C 6.898 80.951,6.661 86.680,6.384 88.750 C 5.898 92.380,5.863 93.004,5.606 102.833 C 5.327 113.475,5.218 116.246,5.018 117.720 C 4.828 119.116,5.093 119.986,5.796 120.280 C 6.655 120.639,55.047 120.528,55.396 120.167 C 56.379 119.147,56.593 117.601,57.080 108.000 C 57.227 105.112,57.454 101.813,57.585 100.667 C 58.128 95.920,58.427 92.110,58.660 86.983 C 58.745 85.094,58.856 83.182,58.905 82.733 C 58.955 82.284,59.075 81.092,59.172 80.083 C 59.270 79.075,59.456 77.575,59.586 76.750 C 59.717 75.925,59.902 73.450,59.998 71.250 C 60.240 65.731,60.311 65.072,60.707 64.713 C 61.084 64.371,72.988 64.087,75.583 64.358 C 78.026 64.612,91.193 64.509,91.625 64.232 C 92.201 63.863,92.121 58.120,91.440 51.000 C 91.304 49.579,91.107 46.429,91.002 44.000 C 90.618 35.120,90.594 34.814,90.249 34.562 C 89.670 34.139,64.364 34.173,63.708 34.598 C 63.337 34.839,63.333 34.881,63.333 38.710 L 63.333 42.579 62.876 43.483 C 62.245 44.730,61.715 45.033,60.291 44.962 C 58.292 44.862,58.001 44.092,57.998 38.891 C 57.995 34.764,57.987 34.720,57.189 34.510 C 56.492 34.327,40.762 34.209,33.619 34.333 M214.450 96.605 C 214.386 96.670,214.332 98.191,214.331 99.986 C 214.328 104.400,214.348 104.351,212.827 103.580 C 208.197 101.234,203.385 106.054,204.365 112.053 C 205.212 117.232,209.104 119.186,213.168 116.473 C 214.241 115.756,214.667 115.796,214.667 116.615 C 214.667 117.314,216.533 117.845,217.293 117.362 C 217.458 117.257,217.494 115.054,217.460 106.906 L 217.417 96.583 215.992 96.536 C 215.209 96.509,214.515 96.541,214.450 96.605 M246.749 96.807 C 245.567 97.527,245.375 99.016,246.339 99.980 C 247.239 100.880,248.573 100.806,249.411 99.809 C 250.829 98.125,248.639 95.654,246.749 96.807 M340.098 96.643 C 339.881 96.993,339.985 117.221,340.205 117.360 C 340.573 117.594,342.772 117.525,342.981 117.273 C 343.117 117.108,343.157 114.233,343.126 106.815 L 343.083 96.583 341.639 96.535 C 340.844 96.509,340.151 96.557,340.098 96.643 M190.948 97.292 C 190.823 97.544,190.549 98.200,190.339 98.750 C 190.129 99.300,189.595 100.656,189.153 101.764 C 188.710 102.872,188.224 104.147,188.073 104.598 C 187.922 105.048,187.619 105.813,187.399 106.297 C 187.180 106.781,187.000 107.231,186.999 107.297 C 186.999 107.363,186.766 107.979,186.482 108.667 C 186.198 109.354,185.679 110.667,185.329 111.583 C 184.979 112.500,184.382 114.059,184.002 115.047 C 183.091 117.417,183.087 117.405,184.794 117.465 C 186.493 117.525,186.712 117.353,187.403 115.417 C 188.616 112.018,188.012 112.339,193.204 112.336 C 197.788 112.333,197.305 112.129,198.147 114.425 C 199.264 117.470,199.334 117.538,201.274 117.466 C 202.949 117.403,202.978 117.725,200.785 112.078 C 193.980 94.558,195.154 96.833,192.917 96.833 C 191.183 96.833,191.174 96.835,190.948 97.292 M276.119 96.937 C 275.841 97.214,275.984 117.291,276.264 117.399 C 276.748 117.585,279.092 117.508,279.300 117.300 C 279.442 117.158,279.501 116.151,279.503 113.842 C 279.506 109.823,279.230 110.196,282.344 110.011 C 283.832 109.923,285.303 109.741,285.833 109.580 C 292.221 107.639,292.026 98.672,285.563 97.138 C 284.662 96.925,276.309 96.746,276.119 96.937 M285.004 100.042 C 287.279 101.193,287.639 104.868,285.625 106.393 C 284.542 107.214,280.336 107.726,279.722 107.111 C 279.490 106.880,279.449 100.179,279.677 99.904 C 280.038 99.470,284.081 99.574,285.004 100.042 M193.417 101.542 C 194.120 103.093,196.054 108.657,196.068 109.164 L 196.083 109.750 192.917 109.750 L 189.750 109.750 189.786 109.250 C 189.806 108.975,190.153 107.888,190.557 106.833 C 190.962 105.779,191.610 104.035,191.998 102.958 C 192.753 100.863,192.999 100.617,193.417 101.542 M227.979 103.146 C 227.540 103.211,226.766 103.533,226.183 103.893 C 225.010 104.617,224.987 104.617,224.463 103.833 C 223.988 103.125,222.298 102.867,221.880 103.439 C 221.581 103.848,221.569 117.002,221.867 117.300 C 222.134 117.567,224.533 117.567,224.800 117.300 C 224.947 117.153,225.000 115.751,225.000 112.028 L 225.000 106.956 225.568 106.421 C 226.759 105.297,228.741 105.221,229.657 106.265 C 229.937 106.584,230.182 106.861,230.200 106.881 C 230.218 106.901,230.275 109.279,230.325 112.167 L 230.417 117.417 231.877 117.465 C 233.763 117.527,233.666 117.820,233.669 112.031 C 233.673 106.276,233.986 105.500,236.306 105.500 C 238.577 105.500,238.824 106.111,238.845 111.786 C 238.854 114.248,238.914 116.522,238.979 116.840 L 239.096 117.417 240.397 117.466 C 242.332 117.538,242.196 117.977,242.135 111.846 C 242.078 106.042,242.011 105.649,240.866 104.443 C 239.064 102.546,235.064 102.638,233.327 104.616 C 232.713 105.316,232.355 105.305,231.833 104.573 C 231.004 103.409,229.627 102.900,227.979 103.146 M314.500 103.154 C 313.879 103.283,312.703 103.842,311.974 104.355 C 311.344 104.799,311.198 104.751,310.897 103.998 C 310.595 103.244,310.311 103.120,309.073 103.198 C 308.311 103.246,308.244 103.286,308.146 103.750 C 307.999 104.440,307.992 115.926,308.137 116.750 L 308.255 117.417 309.415 117.467 C 310.054 117.494,310.747 117.474,310.955 117.422 L 311.333 117.327 311.333 112.270 L 311.333 107.212 311.774 106.772 C 313.055 105.491,315.441 105.095,316.424 106.000 C 317.281 106.789,317.332 107.122,317.350 112.036 C 317.371 117.790,317.261 117.404,318.898 117.466 C 320.830 117.538,320.698 117.955,320.629 112.012 C 320.561 106.152,320.465 105.626,319.235 104.394 C 318.131 103.288,316.239 102.792,314.500 103.154 M328.907 103.158 C 325.018 103.764,322.739 107.712,323.673 112.222 C 324.617 116.777,329.708 118.999,334.336 116.876 C 336.226 116.009,336.516 115.390,335.494 114.411 C 334.938 113.879,335.145 113.851,333.083 114.732 C 330.272 115.933,327.469 114.763,326.825 112.121 C 326.508 110.817,326.370 110.855,331.584 110.799 C 336.496 110.746,336.319 110.776,336.484 109.967 C 337.321 105.878,333.497 102.441,328.907 103.158 M246.222 103.369 C 246.054 103.628,245.987 114.205,246.141 116.083 L 246.250 117.417 247.750 117.417 L 249.250 117.417 249.250 110.333 L 249.250 103.250 247.805 103.202 C 246.766 103.168,246.322 103.214,246.222 103.369 M253.885 103.375 C 253.702 103.657,253.617 115.912,253.792 116.750 L 253.932 117.417 255.424 117.417 L 256.917 117.417 257.001 112.333 C 257.047 109.537,257.148 107.122,257.224 106.966 C 257.838 105.711,261.084 105.066,262.085 106.000 C 263.061 106.911,263.075 106.995,263.166 112.417 L 263.250 117.417 264.616 117.465 C 266.477 117.531,266.375 117.875,266.305 111.776 L 266.248 106.750 265.766 105.704 C 264.880 103.782,263.823 103.167,261.405 103.167 C 259.729 103.167,259.322 103.291,257.667 104.307 C 256.903 104.776,256.881 104.771,256.579 104.048 C 256.437 103.707,256.230 103.371,256.119 103.300 C 255.782 103.086,254.034 103.145,253.885 103.375 M296.045 103.422 C 293.382 104.260,292.464 105.476,293.855 106.322 C 294.421 106.666,294.674 106.629,296.083 105.994 C 298.581 104.868,301.006 105.834,300.997 107.952 C 300.994 108.924,300.827 109.059,299.468 109.189 C 294.588 109.652,292.292 111.164,292.292 113.913 C 292.292 117.500,296.360 118.856,299.983 116.475 L 301.050 115.775 301.351 116.179 C 302.337 117.502,302.335 117.500,303.063 117.500 C 304.196 117.500,304.167 117.640,304.167 112.140 C 304.167 105.822,303.873 104.897,301.452 103.596 C 300.525 103.097,297.396 102.996,296.045 103.422 M213.238 105.993 C 214.250 106.618,214.333 106.947,214.333 110.312 C 214.333 113.762,214.303 113.844,212.661 114.737 C 211.554 115.339,209.897 115.304,209.025 114.659 C 207.139 113.264,207.219 107.554,209.145 106.182 C 210.275 105.378,212.106 105.293,213.238 105.993 M332.229 105.888 C 333.151 106.492,333.849 107.936,333.495 108.508 C 333.301 108.822,327.302 108.869,326.991 108.558 C 326.470 108.036,327.987 105.831,329.019 105.611 C 329.820 105.440,331.807 105.611,332.229 105.888 M300.678 111.339 C 301.209 111.624,301.136 113.313,300.562 113.995 C 298.578 116.352,294.247 115.230,295.568 112.700 C 296.107 111.669,299.571 110.747,300.678 111.339 " stroke="none" fill="#d83c35" fill-rule="evenodd"></path><path id="path1" d="M178.416 33.042 C 178.366 33.248,178.346 42.417,178.371 53.417 L 178.417 73.417 183.542 73.461 L 188.667 73.505 188.667 65.325 L 188.667 57.146 189.117 56.227 C 190.658 53.079,194.411 51.725,196.396 53.600 C 197.511 54.652,197.494 54.489,197.503 64.476 L 197.511 73.500 202.672 73.500 L 207.833 73.500 207.832 63.042 C 207.831 49.289,207.622 47.972,205.077 45.704 C 201.259 42.302,193.782 43.010,190.174 47.117 C 188.631 48.872,188.672 49.063,188.669 40.208 L 188.667 32.667 183.587 32.667 L 178.506 32.667 178.416 33.042 M155.833 33.518 C 151.332 34.482,149.352 35.441,147.083 37.755 C 143.048 41.870,142.370 49.209,145.649 53.281 C 146.670 54.550,150.721 57.167,151.663 57.167 C 151.759 57.167,151.968 57.240,152.127 57.330 C 152.418 57.494,156.262 58.767,157.667 59.164 C 161.890 60.358,163.557 61.916,162.260 63.458 C 161.555 64.295,158.541 64.650,156.377 64.150 C 152.969 63.362,150.436 62.380,147.453 60.690 C 147.107 60.494,146.709 60.333,146.569 60.333 C 146.273 60.333,141.937 69.095,142.066 69.432 C 142.137 69.615,143.793 70.478,145.500 71.221 C 146.459 71.638,149.001 72.454,151.083 73.013 C 151.757 73.193,153.099 73.449,154.958 73.750 C 156.679 74.029,161.094 74.087,162.206 73.846 C 165.837 73.056,165.840 73.055,167.310 72.391 C 171.964 70.287,174.142 66.536,173.959 60.938 C 173.801 56.079,171.991 53.382,167.417 51.191 C 166.592 50.796,165.804 50.419,165.667 50.353 C 165.529 50.286,164.292 49.870,162.917 49.426 C 161.542 48.983,160.267 48.568,160.083 48.503 C 159.900 48.438,159.075 48.171,158.250 47.909 C 155.356 46.992,154.291 46.029,154.592 44.608 C 155.149 41.988,160.910 42.464,166.962 45.628 C 168.636 46.503,168.429 46.630,169.834 43.862 C 170.470 42.609,171.443 40.724,171.995 39.674 C 172.548 38.624,173.000 37.738,173.000 37.706 C 173.000 37.543,168.688 35.640,167.167 35.131 C 164.470 34.230,163.107 33.862,161.667 33.646 C 160.071 33.407,156.696 33.333,155.833 33.518 M277.899 33.903 C 277.849 34.034,278.306 35.402,278.914 36.945 C 280.620 41.270,280.765 41.640,281.418 43.333 C 281.754 44.204,282.090 45.067,282.165 45.250 C 282.240 45.433,282.654 46.483,283.086 47.583 C 283.518 48.683,284.196 50.408,284.594 51.417 C 285.627 54.037,288.717 61.935,289.517 64.000 C 289.890 64.962,290.249 65.862,290.314 66.000 C 290.380 66.137,291.067 67.882,291.842 69.877 L 293.250 73.504 297.662 73.460 L 302.073 73.417 304.510 67.250 C 307.892 58.691,307.813 58.842,308.320 59.954 C 308.479 60.303,312.528 70.478,313.529 73.044 L 313.709 73.505 318.139 73.461 L 322.568 73.417 323.742 70.411 C 324.388 68.758,325.043 67.108,325.197 66.744 C 325.351 66.381,325.701 65.483,325.975 64.750 C 326.249 64.017,327.183 61.617,328.052 59.417 C 329.877 54.795,330.465 53.292,333.270 46.083 C 333.769 44.800,334.242 43.600,334.321 43.417 C 334.399 43.233,334.729 42.408,335.053 41.583 C 335.377 40.758,336.183 38.710,336.843 37.030 C 337.598 35.111,337.986 33.919,337.886 33.820 C 337.792 33.725,335.533 33.680,332.242 33.706 L 326.754 33.750 326.536 34.207 C 326.415 34.458,326.140 35.245,325.924 35.957 C 325.708 36.668,324.844 39.425,324.004 42.083 C 323.163 44.742,322.137 48.004,321.724 49.333 C 321.310 50.661,320.631 52.799,320.214 54.083 C 319.797 55.366,319.419 56.587,319.374 56.796 C 319.330 57.005,319.021 57.980,318.688 58.963 C 317.782 61.640,317.752 61.614,316.077 56.737 L 314.699 52.724 315.668 49.904 C 316.202 48.353,317.251 45.321,318.000 43.167 C 318.749 41.012,319.461 38.950,319.582 38.583 C 319.702 38.217,320.111 37.032,320.489 35.951 C 320.867 34.869,321.133 33.913,321.079 33.826 C 320.963 33.639,312.006 33.609,311.743 33.794 C 311.539 33.938,311.553 33.892,309.825 39.917 C 308.122 45.852,308.184 45.667,307.900 45.667 C 307.625 45.667,307.422 45.216,306.996 43.667 C 306.832 43.071,306.239 40.971,305.678 39.000 C 305.117 37.029,304.583 35.139,304.491 34.799 C 304.178 33.638,304.308 33.667,299.316 33.667 C 295.846 33.667,294.804 33.715,294.742 33.878 C 294.697 33.994,295.642 36.975,296.841 40.503 C 298.040 44.030,299.464 48.226,300.005 49.826 L 300.990 52.736 299.645 56.785 C 298.108 61.414,297.948 61.623,297.358 59.792 C 296.788 58.022,295.865 55.115,294.304 50.167 C 293.480 47.554,292.557 44.629,292.252 43.667 C 290.895 39.384,289.775 35.837,289.482 34.892 C 289.307 34.329,289.046 33.823,288.902 33.767 C 288.285 33.531,277.993 33.658,277.899 33.903 M226.417 43.595 C 226.325 43.632,225.688 43.734,225.000 43.821 C 214.997 45.081,209.186 55.495,213.159 65.040 C 218.398 77.624,238.982 76.955,243.139 64.066 C 246.349 54.114,240.612 44.987,230.325 43.681 C 228.939 43.505,226.753 43.457,226.417 43.595 M265.000 43.696 C 262.425 44.124,260.381 45.234,258.697 47.118 C 257.313 48.666,257.167 48.568,257.167 46.089 L 257.167 44.167 252.750 44.167 L 248.333 44.167 248.333 64.833 L 248.333 85.500 253.500 85.500 L 258.667 85.500 258.667 77.593 C 258.667 68.973,258.669 68.951,259.559 70.099 C 262.997 74.534,269.658 75.411,274.442 72.059 C 280.856 67.563,282.510 56.298,277.779 49.333 C 274.880 45.067,269.920 42.879,265.000 43.696 M348.500 43.603 C 348.363 43.638,347.575 43.738,346.750 43.824 C 343.971 44.115,341.533 44.843,338.951 46.154 C 336.927 47.180,336.944 47.134,337.873 49.111 C 338.296 50.012,338.910 51.331,339.237 52.042 C 339.900 53.479,339.997 53.526,341.037 52.912 C 342.062 52.307,344.062 51.365,344.892 51.097 C 349.670 49.553,353.773 50.769,354.346 53.897 C 354.675 55.699,354.526 55.843,352.838 55.347 C 346.703 53.545,339.815 55.465,337.106 59.733 C 335.220 62.703,335.171 66.651,336.986 69.459 C 340.723 75.239,348.968 75.674,354.361 70.375 C 355.717 69.042,356.072 68.932,356.259 69.785 C 356.929 72.841,358.693 74.000,362.674 74.000 C 363.834 74.000,365.001 73.931,365.267 73.847 C 365.533 73.763,365.956 73.649,366.208 73.594 L 366.667 73.494 366.667 69.168 L 366.667 64.842 365.948 64.514 C 364.796 63.989,364.776 63.892,364.653 58.250 C 364.569 54.398,364.480 53.002,364.265 52.169 C 363.163 47.901,360.242 45.309,355.083 44.024 C 353.702 43.680,349.296 43.398,348.500 43.603 M367.167 44.365 C 367.167 44.547,368.176 47.409,369.008 49.583 C 369.183 50.042,369.618 51.242,369.974 52.250 C 370.330 53.258,371.125 55.471,371.741 57.167 C 373.979 63.332,376.211 69.463,376.951 71.480 C 378.778 76.464,375.680 79.168,370.429 77.171 C 369.504 76.820,369.500 76.838,369.503 81.309 C 369.506 86.178,369.369 85.859,371.667 86.375 C 377.694 87.728,383.801 84.979,386.658 79.626 C 387.326 78.374,387.572 77.637,389.842 70.083 C 392.750 60.408,393.879 56.673,396.365 48.500 C 396.825 46.987,397.268 45.525,397.350 45.251 C 397.698 44.093,398.005 44.167,392.840 44.167 L 388.180 44.167 388.013 44.792 C 387.921 45.135,387.653 46.317,387.417 47.417 C 387.180 48.517,386.917 49.717,386.830 50.083 C 386.675 50.742,384.489 60.640,384.142 62.250 C 383.562 64.947,383.171 64.890,382.436 62.000 C 382.129 60.792,379.524 51.243,378.435 47.333 L 377.577 44.250 372.372 44.206 C 368.373 44.172,367.167 44.209,367.167 44.365 M229.655 52.536 C 234.334 54.133,234.820 62.596,230.358 64.788 C 227.016 66.429,223.286 64.331,222.639 60.446 C 221.999 56.600,223.465 53.565,226.500 52.451 C 226.974 52.278,229.061 52.334,229.655 52.536 M266.119 52.649 C 269.926 54.041,271.199 58.810,268.816 62.757 C 266.567 66.485,261.591 65.996,259.202 61.813 L 258.667 60.876 258.667 58.155 C 258.667 55.529,258.681 55.414,259.081 54.837 C 260.531 52.744,263.691 51.762,266.119 52.649 M351.789 60.352 C 354.487 60.980,354.497 60.988,354.494 62.583 C 354.488 66.278,347.754 68.271,345.709 65.184 C 343.885 62.431,347.701 59.399,351.789 60.352 " stroke="none" fill="#060606" fill-rule="evenodd"></path><path id="path2" d="M10.888 34.147 C 10.231 34.204,9.631 34.318,9.555 34.402 C 9.474 34.491,9.543 34.508,9.722 34.443 C 9.890 34.383,12.809 34.333,16.208 34.333 C 19.608 34.333,22.343 34.287,22.287 34.231 C 22.147 34.092,12.371 34.019,10.888 34.147 M29.667 34.167 C 29.438 34.240,31.313 34.297,33.833 34.293 C 36.648 34.289,38.063 34.237,37.500 34.160 C 36.284 33.992,30.197 33.997,29.667 34.167 M40.417 34.155 C 40.050 34.227,43.538 34.298,48.167 34.312 C 52.796 34.326,56.771 34.380,57.000 34.430 C 57.384 34.516,57.392 34.507,57.092 34.318 C 56.715 34.080,41.555 33.932,40.417 34.155 M65.250 34.167 C 64.689 34.229,66.006 34.280,68.250 34.283 C 70.740 34.287,71.935 34.240,71.417 34.159 C 70.429 34.005,66.668 34.010,65.250 34.167 M23.232 35.097 C 23.288 35.242,23.338 35.561,23.344 35.805 C 23.354 36.248,23.355 36.248,23.510 35.863 C 23.609 35.614,23.604 35.360,23.493 35.154 C 23.287 34.768,23.089 34.725,23.232 35.097 M63.125 35.222 C 63.056 35.390,63.000 37.077,62.999 38.972 C 62.998 43.598,62.764 44.303,61.078 44.755 C 60.291 44.966,60.279 44.978,60.833 44.988 C 61.690 45.004,62.355 44.513,62.879 43.477 L 63.340 42.566 63.295 38.741 C 63.270 36.638,63.194 35.054,63.125 35.222 M8.609 35.409 C 8.520 35.643,8.268 40.641,8.089 45.750 C 7.890 51.445,7.817 52.841,7.669 53.833 C 7.580 54.429,7.470 56.267,7.425 57.917 C 7.379 59.567,7.272 61.704,7.186 62.667 C 6.983 64.948,6.865 67.398,6.735 72.000 C 6.678 74.063,6.601 75.900,6.565 76.083 C 6.530 76.267,6.428 77.804,6.339 79.500 C 6.250 81.196,6.027 85.208,5.843 88.417 C 5.660 91.625,5.430 96.462,5.334 99.167 C 5.237 101.871,5.087 105.091,4.999 106.324 C 4.794 109.220,4.584 114.989,4.584 117.750 L 4.583 119.917 5.333 120.286 L 6.083 120.655 67.500 120.770 L 128.917 120.885 129.458 120.428 C 130.101 119.885,130.139 119.428,129.758 116.771 C 129.500 114.968,129.298 112.361,128.914 105.833 C 128.691 102.052,128.257 97.130,127.838 93.627 C 127.742 92.825,127.593 90.255,127.506 87.915 C 127.420 85.575,127.317 83.606,127.278 83.539 C 127.239 83.472,127.157 82.404,127.095 81.167 C 127.034 79.929,126.877 78.167,126.747 77.250 C 126.446 75.130,126.234 72.740,125.993 68.750 C 125.746 64.658,125.709 64.567,124.235 64.409 C 123.615 64.343,117.103 64.323,109.762 64.366 C 92.182 64.468,92.696 64.514,92.142 62.760 C 92.072 62.541,92.027 62.702,92.017 63.204 C 91.989 64.518,92.278 64.471,84.083 64.485 C 80.142 64.491,76.317 64.434,75.583 64.358 C 72.988 64.087,61.084 64.371,60.707 64.713 C 60.311 65.072,60.240 65.731,59.998 71.250 C 59.902 73.450,59.717 75.925,59.586 76.750 C 59.456 77.575,59.270 79.075,59.172 80.083 C 59.075 81.092,58.955 82.284,58.905 82.733 C 58.856 83.182,58.745 85.094,58.660 86.983 C 58.427 92.110,58.128 95.920,57.585 100.667 C 57.454 101.813,57.227 105.112,57.080 108.000 C 56.593 117.601,56.379 119.147,55.396 120.167 C 55.047 120.528,6.655 120.639,5.796 120.280 C 5.093 119.986,4.828 119.116,5.018 117.720 C 5.218 116.246,5.327 113.475,5.606 102.833 C 5.863 93.004,5.898 92.380,6.384 88.750 C 6.661 86.680,6.898 80.951,7.171 69.750 C 7.258 66.175,7.402 62.650,7.491 61.917 C 7.580 61.183,7.732 59.646,7.829 58.500 C 7.926 57.354,8.081 55.592,8.173 54.583 C 8.338 52.772,8.869 35.314,8.763 35.207 C 8.733 35.177,8.663 35.268,8.609 35.409 M28.294 35.917 C 28.226 36.283,28.181 39.133,28.193 42.250 C 28.216 47.697,28.222 47.804,28.358 45.000 C 28.525 41.572,28.477 34.921,28.294 35.917 M58.071 39.000 C 58.071 41.063,58.095 41.906,58.124 40.875 C 58.154 39.844,58.154 38.156,58.124 37.125 C 58.095 36.094,58.071 36.938,58.071 39.000 M90.725 36.833 C 90.725 37.612,90.754 37.931,90.789 37.542 C 90.824 37.152,90.824 36.515,90.789 36.125 C 90.754 35.735,90.725 36.054,90.725 36.833 M90.897 40.583 C 90.897 41.683,90.924 42.112,90.957 41.535 C 90.990 40.959,90.989 40.059,90.956 39.535 C 90.923 39.012,90.897 39.483,90.897 40.583 M58.410 43.833 C 58.595 44.452,59.013 44.813,59.667 44.921 L 60.250 45.018 59.742 44.781 C 59.462 44.651,59.020 44.290,58.759 43.980 C 58.332 43.473,58.297 43.459,58.410 43.833 M91.057 44.750 C 91.058 45.483,91.087 45.763,91.122 45.371 C 91.157 44.979,91.157 44.379,91.121 44.037 C 91.085 43.696,91.057 44.017,91.057 44.750 M23.342 49.917 C 23.275 53.139,23.271 53.152,22.161 53.684 C 21.656 53.927,20.974 54.378,20.647 54.687 C 20.320 54.997,19.853 55.413,19.610 55.612 L 19.167 55.975 19.167 63.782 C 19.167 74.297,18.481 73.341,26.000 73.316 C 33.371 73.293,32.578 74.382,32.599 64.250 C 32.615 56.114,32.582 55.734,31.820 55.326 C 31.654 55.237,31.169 54.863,30.744 54.495 C 30.318 54.126,29.682 53.678,29.330 53.498 C 28.620 53.136,28.541 52.972,28.345 51.464 C 28.270 50.888,28.199 50.576,28.188 50.771 C 28.149 51.428,27.819 51.543,24.961 51.897 C 23.818 52.039,23.599 51.679,23.487 49.473 L 23.391 47.583 23.342 49.917 M91.205 48.500 C 91.205 48.821,91.240 48.952,91.282 48.792 C 91.323 48.631,91.323 48.369,91.282 48.208 C 91.240 48.048,91.205 48.179,91.205 48.500 M74.781 75.875 C 75.473 76.640,75.500 77.023,75.500 86.169 C 75.500 95.930,75.526 96.229,76.507 97.827 C 77.519 99.475,77.963 99.898,79.416 100.603 L 80.750 101.249 83.777 101.309 C 88.135 101.396,89.146 101.173,90.709 99.784 C 93.103 97.657,93.167 97.314,93.167 86.644 C 93.167 76.264,93.315 75.500,95.333 75.500 C 97.225 75.500,97.255 75.682,97.223 86.833 C 97.193 97.654,97.144 98.165,95.989 99.901 C 95.628 100.442,95.326 100.967,95.318 101.068 C 95.273 101.599,92.587 103.696,90.872 104.538 L 89.083 105.417 84.583 105.417 L 80.083 105.417 78.266 104.675 C 76.084 103.785,74.722 102.711,73.585 100.985 C 72.734 99.693,72.707 99.635,72.054 97.667 L 71.584 96.250 71.534 87.250 C 71.479 77.417,71.503 77.116,72.450 75.991 C 72.996 75.342,74.243 75.280,74.781 75.875 M192.667 101.167 C 192.667 101.258,192.779 101.333,192.917 101.333 C 193.054 101.333,193.167 101.258,193.167 101.167 C 193.167 101.075,193.054 101.000,192.917 101.000 C 192.779 101.000,192.667 101.075,192.667 101.167 " stroke="none" fill="#f2ae34" fill-rule="evenodd"></path><path id="path3" d="M0.000 62.417 L 0.000 124.833 200.000 124.833 L 400.000 124.833 400.000 62.417 L 400.000 0.000 200.000 0.000 L 0.000 0.000 0.000 62.417 M188.844 32.506 C 189.156 32.672,189.167 32.932,189.167 40.006 C 189.167 44.036,189.227 47.333,189.301 47.333 C 189.374 47.333,189.693 47.063,190.009 46.733 C 192.516 44.114,197.530 42.684,201.333 43.504 C 205.496 44.401,207.679 47.194,208.160 52.237 C 208.508 55.891,208.386 73.460,208.011 73.661 C 207.592 73.885,198.181 73.894,197.594 73.671 L 197.167 73.508 197.167 64.784 C 197.167 54.109,197.114 53.835,194.894 53.062 C 193.309 52.511,190.903 53.896,189.648 56.083 L 189.170 56.917 189.168 65.202 C 189.167 73.223,189.156 73.494,188.844 73.661 C 188.643 73.769,186.669 73.833,183.583 73.833 C 180.498 73.833,178.524 73.769,178.322 73.661 C 177.842 73.404,177.812 32.793,178.292 32.513 C 178.690 32.281,188.411 32.274,188.844 32.506 M161.539 33.324 C 165.071 34.103,165.698 34.264,166.206 34.520 C 166.365 34.601,166.592 34.667,166.710 34.667 C 167.447 34.667,173.127 37.201,173.279 37.598 C 173.363 37.818,172.972 38.632,170.328 43.730 C 168.638 46.988,168.857 46.875,166.497 45.717 C 165.444 45.200,164.111 44.611,163.533 44.407 C 162.955 44.204,162.436 43.992,162.380 43.936 C 162.324 43.879,162.118 43.833,161.922 43.833 C 161.727 43.833,161.495 43.770,161.408 43.694 C 160.479 42.874,156.025 43.075,155.322 43.969 C 154.021 45.623,155.595 46.950,160.500 48.333 C 161.495 48.614,164.662 49.638,165.083 49.815 C 165.267 49.892,165.604 50.034,165.833 50.131 C 172.244 52.833,174.402 55.722,174.389 61.583 C 174.377 67.316,171.683 71.148,166.250 73.164 C 161.430 74.951,152.879 74.440,146.750 71.999 C 146.567 71.926,145.967 71.696,145.417 71.488 C 144.017 70.960,141.939 69.912,141.686 69.606 C 141.446 69.318,145.836 60.099,146.296 59.922 C 146.427 59.872,146.700 59.925,146.904 60.041 C 147.363 60.300,151.461 62.325,151.917 62.518 C 156.892 64.619,162.167 64.613,162.167 62.508 C 162.167 61.125,161.220 60.550,156.667 59.167 C 153.662 58.254,152.573 57.877,151.794 57.481 C 151.635 57.400,151.420 57.333,151.317 57.333 C 150.946 57.333,148.065 55.795,147.167 55.118 C 140.443 50.049,142.347 38.746,150.589 34.800 C 153.464 33.424,158.758 32.710,161.539 33.324 M49.083 33.802 C 53.942 33.873,58.038 33.988,58.186 34.058 C 58.746 34.322,58.833 34.955,58.837 38.800 C 58.843 43.818,58.913 44.104,60.192 44.338 C 61.965 44.662,62.327 43.665,62.331 38.450 L 62.333 34.817 62.766 34.417 C 63.311 33.911,63.675 33.868,68.500 33.736 C 72.662 33.623,73.042 33.622,80.167 33.701 C 92.346 33.836,91.049 33.516,91.231 36.426 C 91.293 37.429,91.415 38.625,91.501 39.083 C 91.737 40.344,92.385 54.025,92.551 61.250 C 92.605 63.610,92.739 64.056,93.454 64.261 C 93.708 64.334,100.562 64.373,108.684 64.349 C 116.806 64.324,123.883 64.357,124.410 64.423 C 125.685 64.582,125.752 64.765,125.993 68.750 C 126.234 72.740,126.446 75.130,126.747 77.250 C 126.877 78.167,127.034 79.929,127.095 81.167 C 127.157 82.404,127.239 83.472,127.278 83.539 C 127.317 83.606,127.420 85.575,127.506 87.915 C 127.593 90.255,127.742 92.825,127.838 93.627 C 128.257 97.130,128.691 102.052,128.914 105.833 C 129.298 112.361,129.500 114.968,129.758 116.771 C 130.165 119.609,130.110 120.306,129.458 120.571 C 128.460 120.979,5.051 121.014,4.430 120.607 L 3.956 120.297 4.060 118.274 C 4.117 117.161,4.232 115.275,4.316 114.083 C 4.401 112.892,4.553 110.379,4.655 108.500 C 4.757 106.621,4.914 103.808,5.005 102.250 C 5.096 100.692,5.170 98.442,5.170 97.250 C 5.170 96.058,5.243 93.696,5.332 92.000 C 5.421 90.304,5.572 87.229,5.668 85.167 C 5.842 81.412,5.995 79.064,6.322 75.167 C 6.418 74.021,6.572 70.608,6.665 67.583 C 7.019 56.062,7.112 54.119,7.414 52.083 C 7.702 50.135,7.792 48.502,8.011 41.250 C 8.211 34.646,8.262 34.282,9.033 34.013 C 10.087 33.646,22.882 33.776,23.369 34.159 L 23.783 34.485 23.905 42.862 C 24.035 51.738,24.055 51.943,24.806 51.756 C 25.050 51.695,25.687 51.555,26.222 51.444 C 27.631 51.153,27.474 52.355,27.763 39.701 L 27.882 34.486 28.297 34.159 C 28.680 33.858,29.003 33.832,32.564 33.821 C 34.683 33.814,36.754 33.746,37.167 33.669 C 37.579 33.592,38.442 33.562,39.083 33.601 C 39.725 33.640,44.225 33.730,49.083 33.802 M289.487 33.809 C 289.578 33.979,289.886 34.860,290.172 35.767 C 290.458 36.674,291.105 38.729,291.610 40.333 C 292.115 41.938,292.814 44.150,293.163 45.250 C 294.496 49.447,295.830 53.677,296.582 56.083 C 297.011 57.458,297.446 58.846,297.548 59.167 C 297.961 60.467,298.043 60.343,299.328 56.461 L 300.556 52.750 298.265 45.917 C 297.004 42.158,295.908 38.933,295.830 38.750 C 295.144 37.156,294.173 33.766,294.366 33.643 C 294.742 33.405,304.265 33.466,304.460 33.708 C 304.553 33.823,305.129 35.679,305.742 37.833 C 306.354 39.987,307.005 42.275,307.188 42.917 C 307.924 45.498,307.726 45.794,309.576 39.350 C 310.417 36.422,311.203 33.907,311.323 33.763 C 311.652 33.366,321.292 33.365,321.444 33.762 C 321.554 34.047,321.402 34.530,319.248 40.750 C 318.455 43.042,317.201 46.675,316.463 48.823 L 315.119 52.730 316.351 56.365 C 317.029 58.364,317.662 60.000,317.758 60.000 C 317.958 60.000,318.002 59.881,319.164 56.167 C 319.924 53.736,320.660 51.391,322.327 46.083 C 322.586 45.258,323.140 43.496,323.557 42.167 C 325.755 35.163,326.229 33.739,326.398 33.628 C 326.652 33.460,338.031 33.472,338.296 33.640 C 338.458 33.743,337.877 35.392,335.904 40.429 C 334.471 44.089,333.128 47.533,332.919 48.083 C 332.524 49.125,324.886 68.608,323.674 71.667 C 322.748 74.003,323.172 73.834,318.260 73.831 C 312.960 73.828,313.563 74.079,312.513 71.446 C 312.032 70.238,311.496 68.912,311.324 68.500 C 311.151 68.087,310.438 66.287,309.738 64.500 C 308.315 60.868,308.010 60.165,307.856 60.170 C 307.743 60.173,307.486 60.771,306.249 63.917 C 305.817 65.017,305.398 66.067,305.319 66.250 C 305.240 66.433,304.572 68.121,303.835 70.000 C 303.098 71.879,302.369 73.510,302.216 73.625 C 302.009 73.779,300.820 73.833,297.653 73.833 C 292.882 73.833,292.931 73.844,292.498 72.667 C 292.380 72.346,292.188 71.858,292.073 71.583 C 291.957 71.308,289.859 65.946,287.411 59.667 C 284.962 53.387,282.863 48.025,282.745 47.750 C 280.937 43.530,277.321 33.777,277.518 33.652 C 278.039 33.322,289.305 33.470,289.487 33.809 M231.833 43.590 C 232.246 43.651,232.655 43.768,232.742 43.850 C 232.829 43.933,233.054 44.000,233.242 44.000 C 233.657 44.000,235.062 44.524,236.225 45.112 C 248.053 51.094,246.858 68.923,234.333 73.337 C 219.325 78.627,206.324 64.638,213.535 50.959 C 214.953 48.267,219.734 44.333,221.585 44.333 C 221.711 44.333,221.855 44.267,221.905 44.185 C 221.956 44.104,222.241 43.996,222.540 43.946 C 222.839 43.896,223.608 43.745,224.250 43.610 C 225.441 43.360,230.186 43.348,231.833 43.590 M270.126 43.589 C 270.516 43.651,270.877 43.769,270.928 43.851 C 270.978 43.933,271.167 44.000,271.347 44.000 C 272.247 44.000,274.982 45.685,276.487 47.167 C 283.639 54.209,281.698 69.273,273.129 73.226 C 270.239 74.559,264.705 74.706,263.425 73.485 C 263.338 73.401,263.166 73.333,263.042 73.333 C 262.620 73.333,260.918 72.124,260.064 71.217 C 258.938 70.023,259.000 69.615,259.000 78.249 L 259.000 85.637 257.625 85.749 C 255.026 85.961,248.175 85.784,247.996 85.500 C 247.713 85.051,247.785 44.630,248.070 44.240 C 248.291 43.937,248.572 43.914,252.538 43.867 C 258.002 43.803,257.667 43.669,257.667 45.922 L 257.667 47.685 258.536 46.742 C 259.713 45.467,261.920 44.000,262.663 44.000 C 262.837 44.000,263.027 43.925,263.083 43.833 C 263.140 43.742,263.426 43.661,263.718 43.655 C 264.011 43.649,264.400 43.576,264.583 43.494 C 264.940 43.334,268.949 43.403,270.126 43.589 M354.500 43.641 C 362.376 45.095,364.945 48.651,365.113 58.333 C 365.207 63.716,365.240 63.875,366.382 64.417 L 367.083 64.750 367.083 69.164 L 367.083 73.579 366.634 73.794 C 365.757 74.214,362.554 74.467,360.996 74.239 C 357.996 73.799,356.856 72.932,356.011 70.444 L 355.731 69.621 354.740 70.571 C 347.526 77.490,336.030 74.402,335.245 65.333 C 334.844 60.705,338.507 56.122,343.500 55.008 C 344.004 54.895,344.679 54.730,345.000 54.641 C 345.721 54.441,350.975 54.554,352.000 54.792 C 352.412 54.888,352.998 55.045,353.300 55.141 C 353.968 55.352,354.081 55.171,353.959 54.086 C 353.491 49.933,347.267 49.606,340.803 53.395 C 339.818 53.972,339.648 53.883,338.992 52.448 C 338.690 51.789,338.041 50.393,337.549 49.345 C 336.434 46.971,336.445 46.948,339.218 45.677 C 342.004 44.401,343.141 44.053,345.816 43.663 C 346.402 43.577,346.926 43.463,346.981 43.408 C 347.134 43.255,353.471 43.451,354.500 43.641 M377.544 43.985 C 377.956 44.142,378.133 44.614,378.985 47.833 C 379.391 49.366,382.404 60.399,382.763 61.667 C 383.093 62.831,383.324 63.398,383.426 63.296 C 383.491 63.231,384.481 58.916,385.348 54.917 C 385.664 53.461,386.153 51.251,386.929 47.773 C 387.910 43.377,387.209 43.833,392.979 43.833 C 398.021 43.833,398.152 43.860,397.866 44.843 C 397.775 45.159,397.085 47.442,396.334 49.917 C 395.583 52.392,394.907 54.642,394.833 54.917 C 394.678 55.492,393.938 57.933,392.584 62.333 C 392.062 64.029,391.574 65.642,391.500 65.917 C 391.426 66.192,391.090 67.317,390.755 68.417 C 390.062 70.687,388.843 74.735,388.225 76.820 C 386.893 81.311,383.881 84.627,379.750 86.150 C 376.917 87.194,372.352 87.160,369.754 86.074 L 369.167 85.829 369.167 81.326 C 369.167 76.127,369.042 76.444,370.873 77.001 C 373.576 77.824,375.841 77.433,376.643 76.006 C 377.558 74.379,377.497 73.925,375.757 69.333 C 375.635 69.012,375.037 67.362,374.427 65.667 C 373.817 63.971,373.174 62.208,372.999 61.750 C 372.824 61.292,372.073 59.229,371.331 57.167 C 370.590 55.104,369.839 53.042,369.662 52.583 C 367.649 47.343,366.663 44.248,366.942 44.044 C 367.288 43.791,376.893 43.737,377.544 43.985 M226.750 52.734 C 222.058 54.076,221.488 62.632,225.958 64.609 C 229.749 66.285,232.900 63.664,232.900 58.833 C 232.900 54.323,230.280 51.725,226.750 52.734 M262.603 52.763 C 261.136 53.163,259.258 54.760,259.069 55.769 C 258.807 57.165,259.085 60.888,259.509 61.656 C 262.901 67.802,270.083 64.928,269.483 57.665 C 269.190 54.123,265.987 51.841,262.603 52.763 M348.644 60.606 C 345.223 61.220,344.701 65.231,347.910 66.241 C 349.764 66.824,352.735 65.811,353.684 64.272 C 354.092 63.610,354.080 61.365,353.667 61.163 C 352.743 60.711,349.848 60.391,348.644 60.606 M72.524 75.891 C 71.528 76.951,71.499 77.265,71.510 86.831 C 71.520 96.253,71.459 95.428,72.387 98.640 C 73.116 101.162,75.398 103.505,78.266 104.675 L 80.083 105.417 84.583 105.417 L 89.083 105.417 90.914 104.518 C 94.010 102.998,96.358 100.287,96.920 97.583 C 97.294 95.780,97.389 77.810,97.030 76.794 C 96.601 75.584,95.225 75.096,94.298 75.826 C 93.226 76.669,93.167 77.233,93.167 86.644 C 93.167 97.314,93.103 97.657,90.709 99.784 C 89.146 101.173,88.135 101.396,83.777 101.309 L 80.750 101.249 79.416 100.603 C 77.963 99.898,77.519 99.475,76.507 97.827 C 75.526 96.229,75.500 95.930,75.500 86.169 C 75.500 77.023,75.473 76.640,74.781 75.875 C 74.294 75.336,73.037 75.345,72.524 75.891 M217.633 96.367 C 217.991 96.724,217.914 117.229,217.554 117.589 C 216.815 118.328,214.644 117.678,214.440 116.658 C 214.321 116.061,214.137 116.045,213.446 116.572 C 207.573 121.052,201.385 113.508,204.954 106.219 C 206.383 103.301,210.420 101.885,213.063 103.375 C 213.510 103.627,213.903 103.833,213.938 103.833 C 213.972 103.833,214.000 102.187,214.000 100.175 C 214.000 96.867,214.028 96.500,214.292 96.347 C 214.710 96.103,217.386 96.119,217.633 96.367 M343.300 96.367 C 343.643 96.709,343.583 117.227,343.238 117.571 C 342.930 117.879,340.521 117.946,339.989 117.661 C 339.590 117.447,339.472 96.762,339.867 96.367 C 339.993 96.240,340.626 96.167,341.583 96.167 C 342.541 96.167,343.174 96.240,343.300 96.367 M249.172 96.671 C 251.441 98.286,249.316 101.933,246.842 100.671 C 245.172 99.819,244.965 97.548,246.475 96.632 C 247.132 96.233,248.587 96.254,249.172 96.671 M195.037 96.815 C 195.103 96.875,196.179 99.547,197.428 102.753 C 200.089 109.585,200.801 111.402,201.084 112.083 C 203.508 117.922,203.508 117.930,200.852 117.809 C 199.132 117.731,199.048 117.644,198.059 114.916 C 197.094 112.255,197.635 112.504,192.833 112.505 C 188.596 112.505,188.776 112.458,188.338 113.678 C 186.909 117.662,186.874 117.709,185.169 117.805 C 183.829 117.881,182.833 117.736,182.833 117.465 C 182.833 117.303,183.657 115.156,187.491 105.333 C 187.938 104.188,188.651 102.350,189.077 101.250 C 190.262 98.183,190.707 97.102,190.874 96.883 C 191.130 96.549,194.677 96.491,195.037 96.815 M285.750 96.938 C 289.107 97.798,290.586 99.757,290.579 103.333 C 290.571 108.094,287.735 110.333,281.718 110.333 L 279.852 110.333 279.801 113.903 C 279.773 115.867,279.688 117.535,279.611 117.611 C 279.318 117.905,276.241 117.884,275.943 117.586 C 275.479 117.122,275.523 96.876,275.989 96.703 C 276.621 96.468,284.675 96.662,285.750 96.938 M279.872 103.375 L 279.917 106.917 281.930 106.963 C 285.147 107.038,286.667 105.897,286.667 103.405 C 286.667 100.882,285.246 99.833,281.825 99.833 L 279.827 99.833 279.872 103.375 M192.875 101.458 C 192.760 101.496,192.667 101.614,192.667 101.719 C 192.667 101.894,191.998 103.803,191.664 104.583 C 191.047 106.021,189.988 109.229,190.065 109.428 C 190.144 109.635,190.620 109.667,193.038 109.629 L 195.917 109.583 195.871 109.167 C 195.845 108.938,195.569 108.075,195.256 107.250 C 194.943 106.425,194.326 104.769,193.885 103.569 C 193.361 102.144,193.011 101.413,192.875 101.458 M230.590 103.147 C 231.213 103.430,231.806 104.000,232.275 104.769 C 232.454 105.063,232.514 105.038,233.192 104.392 C 235.238 102.443,238.994 102.234,240.783 103.971 C 242.218 105.363,242.244 105.497,242.298 111.937 L 242.346 117.625 241.964 117.727 C 241.346 117.892,239.338 117.848,238.989 117.661 C 238.682 117.496,238.667 117.263,238.666 112.702 C 238.664 106.257,238.521 105.833,236.332 105.833 C 234.033 105.833,233.872 106.273,233.850 112.605 C 233.830 118.318,233.996 117.892,231.832 117.808 C 229.877 117.733,230.006 118.108,230.003 112.479 C 229.999 106.016,229.941 105.833,227.890 105.833 C 225.401 105.833,225.346 105.974,225.292 112.465 C 225.256 116.739,225.212 117.537,225.000 117.670 C 224.686 117.869,221.997 117.879,221.687 117.683 C 221.412 117.509,221.352 103.415,221.625 103.141 C 222.072 102.695,224.407 103.063,224.667 103.621 C 224.970 104.275,225.063 104.284,225.857 103.733 C 227.203 102.801,229.266 102.545,230.590 103.147 M256.392 103.127 C 256.470 103.171,256.640 103.461,256.769 103.770 C 257.049 104.439,257.187 104.460,257.886 103.936 C 260.230 102.183,264.115 102.544,265.507 104.646 C 266.483 106.120,266.555 106.599,266.627 112.139 C 266.706 118.199,266.826 117.833,264.756 117.833 C 262.705 117.833,262.858 118.262,262.792 112.333 C 262.748 108.296,262.686 107.158,262.495 106.804 C 261.849 105.610,259.811 105.440,258.273 106.452 L 257.333 107.071 257.333 112.190 C 257.333 116.622,257.298 117.345,257.071 117.571 C 256.801 117.842,254.686 117.946,253.873 117.728 L 253.497 117.627 253.540 110.355 L 253.583 103.083 254.500 102.990 C 255.375 102.901,256.084 102.952,256.392 103.127 M301.604 103.375 C 304.075 104.656,304.382 105.593,304.453 112.083 C 304.515 117.817,304.540 117.684,303.393 117.780 C 302.346 117.867,301.835 117.591,301.411 116.711 L 301.073 116.007 300.136 116.672 C 295.950 119.641,290.580 116.767,292.232 112.442 C 292.933 110.606,296.182 109.000,299.196 109.000 C 300.796 109.000,301.051 108.707,300.664 107.312 C 300.218 105.709,298.165 105.283,295.943 106.333 C 294.342 107.090,293.740 106.967,293.016 105.740 L 292.661 105.139 293.162 104.671 C 295.022 102.933,299.443 102.255,301.604 103.375 M318.261 103.289 C 320.537 104.475,320.833 105.504,320.833 112.237 L 320.833 117.628 320.458 117.728 C 319.924 117.871,317.621 117.852,317.386 117.703 C 317.243 117.612,317.174 116.156,317.136 112.406 C 317.080 106.881,317.056 106.725,316.179 106.047 C 315.681 105.661,313.577 105.781,312.857 106.235 C 311.586 107.037,311.667 106.630,311.667 112.250 C 311.667 118.235,311.803 117.833,309.770 117.833 C 307.655 117.833,307.841 118.547,307.826 110.376 C 307.819 106.503,307.859 103.259,307.916 103.167 C 308.382 102.414,311.167 103.159,311.167 104.037 C 311.167 104.458,311.439 104.407,312.368 103.811 C 314.059 102.726,316.726 102.490,318.261 103.289 M333.348 103.382 C 335.600 104.469,336.833 106.628,336.833 109.482 C 336.833 111.036,336.997 110.987,331.657 111.039 L 327.083 111.083 327.118 111.818 C 327.243 114.509,330.385 115.787,333.394 114.371 C 335.069 113.583,336.500 114.066,336.500 115.420 C 336.500 117.052,330.835 118.517,328.146 117.579 C 321.444 115.243,321.452 104.937,328.156 103.052 C 329.500 102.674,332.241 102.849,333.348 103.382 M249.467 103.200 C 249.807 103.540,249.748 117.228,249.405 117.571 C 249.097 117.879,246.688 117.946,246.156 117.661 C 245.829 117.486,245.625 103.431,245.944 103.111 C 246.147 102.908,249.253 102.987,249.467 103.200 M209.535 106.224 C 208.064 107.310,207.474 110.096,208.147 112.786 C 208.737 115.147,211.353 115.698,213.480 113.908 L 214.000 113.470 214.000 110.308 C 214.000 108.450,213.929 107.012,213.828 106.823 C 213.298 105.834,210.578 105.454,209.535 106.224 M328.487 106.212 C 327.797 106.678,327.167 107.582,327.167 108.108 L 327.167 108.500 330.250 108.500 L 333.333 108.500 333.333 108.075 C 333.333 106.205,330.254 105.021,328.487 106.212 M298.250 111.580 C 298.158 111.610,297.679 111.759,297.186 111.911 C 294.688 112.683,295.038 115.000,297.653 115.000 C 299.764 115.000,300.825 114.013,300.831 112.042 L 300.833 111.500 299.625 111.513 C 298.960 111.520,298.342 111.550,298.250 111.580 " stroke="none" fill="#fbfafa" fill-rule="evenodd"></path><path id="path4" d="M178.292 32.513 C 177.812 32.793,177.842 73.404,178.322 73.661 C 178.524 73.769,180.498 73.833,183.583 73.833 C 186.669 73.833,188.643 73.769,188.844 73.661 C 189.156 73.494,189.167 73.223,189.168 65.202 L 189.170 56.917 189.648 56.083 C 190.903 53.896,193.309 52.511,194.894 53.062 C 197.114 53.835,197.167 54.109,197.167 64.784 L 197.167 73.508 197.594 73.671 C 198.181 73.894,207.592 73.885,208.011 73.661 C 208.386 73.460,208.508 55.891,208.160 52.237 C 207.679 47.194,205.496 44.401,201.333 43.504 C 197.530 42.684,192.516 44.114,190.009 46.733 C 189.693 47.063,189.374 47.333,189.301 47.333 C 189.227 47.333,189.167 44.036,189.167 40.006 C 189.167 32.932,189.156 32.672,188.844 32.506 C 188.411 32.274,178.690 32.281,178.292 32.513 M188.669 40.208 C 188.672 49.063,188.631 48.872,190.174 47.117 C 193.782 43.010,201.259 42.302,205.077 45.704 C 207.622 47.972,207.831 49.289,207.832 63.042 L 207.833 73.500 202.672 73.500 L 197.511 73.500 197.503 64.476 C 197.494 54.489,197.511 54.652,196.396 53.600 C 194.411 51.725,190.658 53.079,189.117 56.227 L 188.667 57.146 188.667 65.325 L 188.667 73.505 183.542 73.461 L 178.417 73.417 178.371 53.417 C 178.346 42.417,178.366 33.248,178.416 33.042 L 178.506 32.667 183.587 32.667 L 188.667 32.667 188.669 40.208 M154.778 33.422 C 147.388 35.033,143.156 39.914,143.170 46.810 C 143.177 50.435,144.442 53.064,147.167 55.118 C 148.065 55.795,150.946 57.333,151.317 57.333 C 151.420 57.333,151.635 57.400,151.794 57.481 C 152.573 57.877,153.662 58.254,156.667 59.167 C 161.220 60.550,162.167 61.125,162.167 62.508 C 162.167 64.613,156.892 64.619,151.917 62.518 C 151.461 62.325,147.363 60.300,146.904 60.041 C 146.700 59.925,146.427 59.872,146.296 59.922 C 145.836 60.099,141.446 69.318,141.686 69.606 C 141.939 69.912,144.017 70.960,145.417 71.488 C 145.967 71.696,146.567 71.926,146.750 71.999 C 152.879 74.440,161.430 74.951,166.250 73.164 C 171.683 71.148,174.377 67.316,174.389 61.583 C 174.402 55.722,172.244 52.833,165.833 50.131 C 165.604 50.034,165.267 49.892,165.083 49.815 C 164.662 49.638,161.495 48.614,160.500 48.333 C 155.595 46.950,154.021 45.623,155.322 43.969 C 156.025 43.075,160.479 42.874,161.408 43.694 C 161.495 43.770,161.727 43.833,161.922 43.833 C 162.118 43.833,162.324 43.879,162.380 43.936 C 162.436 43.992,162.955 44.204,163.533 44.407 C 164.111 44.611,165.444 45.200,166.497 45.717 C 168.857 46.875,168.638 46.988,170.328 43.730 C 172.972 38.632,173.363 37.818,173.279 37.598 C 173.127 37.201,167.447 34.667,166.710 34.667 C 166.592 34.667,166.365 34.601,166.206 34.520 C 165.698 34.264,165.071 34.103,161.539 33.324 C 160.535 33.102,155.939 33.169,154.778 33.422 M161.667 33.646 C 163.107 33.862,164.470 34.230,167.167 35.131 C 168.688 35.640,173.000 37.543,173.000 37.706 C 173.000 37.738,172.548 38.624,171.995 39.674 C 171.443 40.724,170.470 42.609,169.834 43.862 C 168.429 46.630,168.636 46.503,166.962 45.628 C 160.910 42.464,155.149 41.988,154.592 44.608 C 154.291 46.029,155.356 46.992,158.250 47.909 C 159.075 48.171,159.900 48.438,160.083 48.503 C 160.267 48.568,161.542 48.983,162.917 49.426 C 164.292 49.870,165.529 50.286,165.667 50.353 C 165.804 50.419,166.592 50.796,167.417 51.191 C 171.991 53.382,173.801 56.079,173.959 60.938 C 174.142 66.536,171.964 70.287,167.310 72.391 C 165.840 73.055,165.837 73.056,162.206 73.846 C 161.094 74.087,156.679 74.029,154.958 73.750 C 153.099 73.449,151.757 73.193,151.083 73.013 C 149.001 72.454,146.459 71.638,145.500 71.221 C 143.793 70.478,142.137 69.615,142.066 69.432 C 141.937 69.095,146.273 60.333,146.569 60.333 C 146.709 60.333,147.107 60.494,147.453 60.690 C 150.436 62.380,152.969 63.362,156.377 64.150 C 158.541 64.650,161.555 64.295,162.260 63.458 C 163.557 61.916,161.890 60.358,157.667 59.164 C 156.262 58.767,152.418 57.494,152.127 57.330 C 151.968 57.240,151.759 57.167,151.663 57.167 C 150.721 57.167,146.670 54.550,145.649 53.281 C 142.370 49.209,143.048 41.870,147.083 37.755 C 149.352 35.441,151.332 34.482,155.833 33.518 C 156.696 33.333,160.071 33.407,161.667 33.646 M37.167 33.669 C 36.754 33.746,34.683 33.814,32.564 33.821 C 29.003 33.832,28.680 33.858,28.297 34.159 L 27.882 34.486 27.763 39.701 C 27.474 52.342,27.612 51.238,26.296 51.407 C 25.813 51.469,25.229 51.628,25.000 51.761 L 24.583 52.003 25.000 51.917 C 25.229 51.870,25.935 51.761,26.569 51.674 C 28.385 51.427,28.243 52.134,28.247 43.289 C 28.250 34.814,28.261 34.712,29.219 34.307 C 30.204 33.892,56.590 33.986,57.286 34.408 C 58.069 34.881,58.071 34.891,58.164 39.280 C 58.258 43.692,58.266 43.729,59.378 44.559 C 60.256 45.214,61.957 44.741,62.579 43.667 C 62.885 43.138,62.925 42.710,63.000 39.128 L 63.083 35.173 63.523 34.734 C 64.106 34.152,66.127 33.930,69.583 34.068 C 70.958 34.123,76.021 34.208,80.833 34.258 C 85.646 34.308,89.752 34.384,89.957 34.427 C 90.706 34.585,90.780 35.160,91.072 43.019 C 91.222 47.088,91.417 51.054,91.504 51.833 C 91.668 53.304,91.947 58.095,92.049 61.215 C 92.092 62.507,92.177 63.082,92.352 63.257 C 92.566 63.470,92.590 63.230,92.548 61.292 C 92.400 54.351,91.740 40.360,91.501 39.083 C 91.415 38.625,91.293 37.429,91.231 36.426 C 91.049 33.516,92.346 33.836,80.167 33.701 C 73.042 33.622,72.662 33.623,68.500 33.736 C 63.675 33.868,63.311 33.911,62.766 34.417 L 62.333 34.817 62.331 38.450 C 62.327 43.665,61.965 44.662,60.192 44.338 C 58.913 44.104,58.843 43.818,58.837 38.800 C 58.833 34.955,58.746 34.322,58.186 34.058 C 58.038 33.988,53.942 33.873,49.083 33.802 C 44.225 33.730,39.725 33.640,39.083 33.601 C 38.442 33.562,37.579 33.592,37.167 33.669 M277.518 33.652 C 277.321 33.777,280.937 43.530,282.745 47.750 C 282.863 48.025,284.962 53.387,287.411 59.667 C 289.859 65.946,291.957 71.308,292.073 71.583 C 292.188 71.858,292.380 72.346,292.498 72.667 C 292.931 73.844,292.882 73.833,297.653 73.833 C 300.820 73.833,302.009 73.779,302.216 73.625 C 302.369 73.510,303.098 71.879,303.835 70.000 C 304.572 68.121,305.240 66.433,305.319 66.250 C 305.398 66.067,305.817 65.017,306.249 63.917 C 307.486 60.771,307.743 60.173,307.856 60.170 C 308.010 60.165,308.315 60.868,309.738 64.500 C 310.438 66.287,311.151 68.087,311.324 68.500 C 311.496 68.912,312.032 70.238,312.513 71.446 C 313.563 74.079,312.960 73.828,318.260 73.831 C 323.172 73.834,322.748 74.003,323.674 71.667 C 324.886 68.608,332.524 49.125,332.919 48.083 C 333.128 47.533,334.471 44.089,335.904 40.429 C 337.877 35.392,338.458 33.743,338.296 33.640 C 338.031 33.472,326.652 33.460,326.398 33.628 C 326.229 33.739,325.755 35.163,323.557 42.167 C 323.140 43.496,322.586 45.258,322.327 46.083 C 320.660 51.391,319.924 53.736,319.164 56.167 C 318.002 59.881,317.958 60.000,317.758 60.000 C 317.662 60.000,317.029 58.364,316.351 56.365 L 315.119 52.730 316.463 48.823 C 317.201 46.675,318.455 43.042,319.248 40.750 C 321.402 34.530,321.554 34.047,321.444 33.762 C 321.292 33.365,311.652 33.366,311.323 33.763 C 311.203 33.907,310.417 36.422,309.576 39.350 C 307.726 45.794,307.924 45.498,307.188 42.917 C 307.005 42.275,306.354 39.987,305.742 37.833 C 305.129 35.679,304.553 33.823,304.460 33.708 C 304.265 33.466,294.742 33.405,294.366 33.643 C 294.173 33.766,295.144 37.156,295.830 38.750 C 295.908 38.933,297.004 42.158,298.265 45.917 L 300.556 52.750 299.328 56.461 C 298.043 60.343,297.961 60.467,297.548 59.167 C 297.446 58.846,297.011 57.458,296.582 56.083 C 295.830 53.677,294.496 49.447,293.163 45.250 C 292.814 44.150,292.115 41.938,291.610 40.333 C 291.105 38.729,290.458 36.674,290.172 35.767 C 289.886 34.860,289.578 33.979,289.487 33.809 C 289.305 33.470,278.039 33.322,277.518 33.652 M288.902 33.767 C 289.046 33.823,289.307 34.329,289.482 34.892 C 289.775 35.837,290.895 39.384,292.252 43.667 C 292.557 44.629,293.480 47.554,294.304 50.167 C 295.865 55.115,296.788 58.022,297.358 59.792 C 297.948 61.623,298.108 61.414,299.645 56.785 L 300.990 52.736 300.005 49.826 C 299.464 48.226,298.040 44.030,296.841 40.503 C 295.642 36.975,294.697 33.994,294.742 33.878 C 294.804 33.715,295.846 33.667,299.316 33.667 C 304.308 33.667,304.178 33.638,304.491 34.799 C 304.583 35.139,305.117 37.029,305.678 39.000 C 306.239 40.971,306.832 43.071,306.996 43.667 C 307.422 45.216,307.625 45.667,307.900 45.667 C 308.184 45.667,308.122 45.852,309.825 39.917 C 311.553 33.892,311.539 33.938,311.743 33.794 C 312.006 33.609,320.963 33.639,321.079 33.826 C 321.133 33.913,320.867 34.869,320.489 35.951 C 320.111 37.032,319.702 38.217,319.582 38.583 C 319.461 38.950,318.749 41.012,318.000 43.167 C 317.251 45.321,316.202 48.353,315.668 49.904 L 314.699 52.724 316.077 56.737 C 317.752 61.614,317.782 61.640,318.688 58.963 C 319.021 57.980,319.330 57.005,319.374 56.796 C 319.419 56.587,319.797 55.366,320.214 54.083 C 320.631 52.799,321.310 50.661,321.724 49.333 C 322.137 48.004,323.163 44.742,324.004 42.083 C 324.844 39.425,325.708 36.668,325.924 35.957 C 326.140 35.245,326.415 34.458,326.536 34.207 L 326.754 33.750 332.242 33.706 C 335.533 33.680,337.792 33.725,337.886 33.820 C 337.986 33.919,337.598 35.111,336.843 37.030 C 336.183 38.710,335.377 40.758,335.053 41.583 C 334.729 42.408,334.399 43.233,334.321 43.417 C 334.242 43.600,333.769 44.800,333.270 46.083 C 330.465 53.292,329.877 54.795,328.052 59.417 C 327.183 61.617,326.249 64.017,325.975 64.750 C 325.701 65.483,325.351 66.381,325.197 66.744 C 325.043 67.108,324.388 68.758,323.742 70.411 L 322.568 73.417 318.139 73.461 L 313.709 73.505 313.529 73.044 C 312.528 70.478,308.479 60.303,308.320 59.954 C 307.813 58.842,307.892 58.691,304.510 67.250 L 302.073 73.417 297.662 73.460 L 293.250 73.504 291.842 69.877 C 291.067 67.882,290.380 66.137,290.314 66.000 C 290.249 65.862,289.890 64.962,289.517 64.000 C 288.717 61.935,285.627 54.037,284.594 51.417 C 284.196 50.408,283.518 48.683,283.086 47.583 C 282.654 46.483,282.240 45.433,282.165 45.250 C 282.090 45.067,281.754 44.204,281.418 43.333 C 280.765 41.640,280.620 41.270,278.914 36.945 C 278.306 35.402,277.849 34.034,277.899 33.903 C 277.993 33.658,288.285 33.531,288.902 33.767 M8.961 34.026 C 8.635 34.145,8.459 34.366,8.343 34.805 C 8.187 35.390,7.812 44.653,7.846 47.083 C 7.873 49.054,8.109 47.639,8.138 45.333 C 8.238 37.165,8.525 34.933,9.544 34.380 C 10.325 33.957,21.801 33.916,22.571 34.334 C 23.411 34.789,23.709 35.330,23.480 35.985 C 23.229 36.706,23.375 50.520,23.641 51.198 C 23.738 51.445,23.976 51.731,24.171 51.835 C 24.509 52.017,24.513 52.009,24.273 51.637 C 24.063 51.313,24.004 49.896,23.903 42.867 L 23.783 34.485 23.369 34.159 C 22.899 33.789,9.937 33.669,8.961 34.026 M224.250 43.610 C 223.608 43.745,222.839 43.896,222.540 43.946 C 222.241 43.996,221.956 44.104,221.905 44.185 C 221.855 44.267,221.711 44.333,221.585 44.333 C 219.734 44.333,214.953 48.267,213.535 50.959 C 206.689 63.944,218.009 77.497,232.667 73.864 C 247.418 70.208,248.672 49.735,234.475 44.339 C 233.985 44.153,233.430 44.000,233.242 44.000 C 233.054 44.000,232.829 43.933,232.742 43.850 C 232.273 43.408,226.052 43.232,224.250 43.610 M264.583 43.494 C 264.400 43.576,264.011 43.649,263.718 43.655 C 263.426 43.661,263.140 43.742,263.083 43.833 C 263.027 43.925,262.837 44.000,262.663 44.000 C 261.920 44.000,259.713 45.467,258.536 46.742 L 257.667 47.685 257.667 45.922 C 257.667 43.669,258.002 43.803,252.538 43.867 C 248.572 43.914,248.291 43.937,248.070 44.240 C 247.785 44.630,247.713 85.051,247.996 85.500 C 248.175 85.784,255.026 85.961,257.625 85.749 L 259.000 85.637 259.000 78.249 C 259.000 69.615,258.938 70.023,260.064 71.217 C 260.918 72.124,262.620 73.333,263.042 73.333 C 263.166 73.333,263.338 73.401,263.425 73.485 C 264.394 74.410,269.535 74.585,271.795 73.769 C 280.448 70.647,283.779 57.852,278.186 49.215 C 276.720 46.951,272.850 44.000,271.347 44.000 C 271.167 44.000,270.978 43.933,270.928 43.851 C 270.714 43.505,265.245 43.197,264.583 43.494 M346.981 43.408 C 346.926 43.463,346.402 43.577,345.816 43.663 C 343.141 44.053,342.004 44.401,339.218 45.677 C 336.445 46.948,336.434 46.971,337.549 49.345 C 338.041 50.393,338.690 51.789,338.992 52.448 C 339.648 53.883,339.818 53.972,340.803 53.395 C 347.267 49.606,353.491 49.933,353.959 54.086 C 354.081 55.171,353.968 55.352,353.300 55.141 C 352.998 55.045,352.412 54.888,352.000 54.792 C 350.975 54.554,345.721 54.441,345.000 54.641 C 344.679 54.730,344.004 54.895,343.500 55.008 C 338.507 56.122,334.844 60.705,335.245 65.333 C 336.030 74.402,347.526 77.490,354.740 70.571 L 355.731 69.621 356.011 70.444 C 356.856 72.932,357.996 73.799,360.996 74.239 C 362.554 74.467,365.757 74.214,366.634 73.794 L 367.083 73.579 367.083 69.164 L 367.083 64.750 366.382 64.417 C 365.240 63.875,365.207 63.716,365.113 58.333 C 364.945 48.651,362.376 45.095,354.500 43.641 C 353.471 43.451,347.134 43.255,346.981 43.408 M230.325 43.681 C 240.612 44.987,246.349 54.114,243.139 64.066 C 238.982 76.955,218.398 77.624,213.159 65.040 C 209.186 55.495,214.997 45.081,225.000 43.821 C 225.688 43.734,226.325 43.632,226.417 43.595 C 226.753 43.457,228.939 43.505,230.325 43.681 M268.907 43.680 C 273.397 44.480,276.691 46.919,278.729 50.955 C 281.743 56.924,280.776 65.528,276.574 70.128 C 271.711 75.452,263.697 75.438,259.559 70.099 C 258.669 68.951,258.667 68.973,258.667 77.593 L 258.667 85.500 253.500 85.500 L 248.333 85.500 248.333 64.833 L 248.333 44.167 252.750 44.167 L 257.167 44.167 257.167 46.089 C 257.167 48.568,257.313 48.666,258.697 47.118 C 261.188 44.331,265.123 43.006,268.907 43.680 M352.481 43.679 C 358.987 44.280,362.969 47.149,364.265 52.169 C 364.480 53.002,364.569 54.398,364.653 58.250 C 364.776 63.892,364.796 63.989,365.948 64.514 L 366.667 64.842 366.667 69.168 L 366.667 73.494 366.208 73.594 C 365.956 73.649,365.533 73.763,365.267 73.847 C 365.001 73.931,363.834 74.000,362.674 74.000 C 358.693 74.000,356.929 72.841,356.259 69.785 C 356.072 68.932,355.717 69.042,354.361 70.375 C 351.747 72.943,349.271 74.000,345.864 74.000 C 333.888 74.000,331.759 58.798,343.250 55.331 C 344.414 54.980,345.691 54.810,347.833 54.722 C 349.967 54.634,350.737 54.730,352.838 55.347 C 354.526 55.843,354.675 55.699,354.346 53.897 C 353.773 50.769,349.670 49.553,344.892 51.097 C 344.062 51.365,342.062 52.307,341.037 52.912 C 339.997 53.526,339.900 53.479,339.237 52.042 C 338.910 51.331,338.296 50.012,337.873 49.111 C 336.944 47.134,336.927 47.180,338.951 46.154 C 341.533 44.843,343.971 44.115,346.750 43.824 C 347.575 43.738,348.363 43.638,348.500 43.603 C 349.002 43.474,350.591 43.504,352.481 43.679 M366.942 44.044 C 366.663 44.248,367.649 47.343,369.662 52.583 C 369.839 53.042,370.590 55.104,371.331 57.167 C 372.073 59.229,372.824 61.292,372.999 61.750 C 373.174 62.208,373.817 63.971,374.427 65.667 C 375.037 67.362,375.635 69.012,375.757 69.333 C 377.497 73.925,377.558 74.379,376.643 76.006 C 375.841 77.433,373.576 77.824,370.873 77.001 C 369.042 76.444,369.167 76.127,369.167 81.326 L 369.167 85.829 369.754 86.074 C 372.352 87.160,376.917 87.194,379.750 86.150 C 383.881 84.627,386.893 81.311,388.225 76.820 C 388.843 74.735,390.062 70.687,390.755 68.417 C 391.090 67.317,391.426 66.192,391.500 65.917 C 391.574 65.642,392.062 64.029,392.584 62.333 C 393.938 57.933,394.678 55.492,394.833 54.917 C 394.907 54.642,395.583 52.392,396.334 49.917 C 397.085 47.442,397.775 45.159,397.866 44.843 C 398.152 43.860,398.021 43.833,392.979 43.833 C 387.209 43.833,387.910 43.377,386.929 47.773 C 386.153 51.251,385.664 53.461,385.348 54.917 C 384.481 58.916,383.491 63.231,383.426 63.296 C 383.324 63.398,383.093 62.831,382.763 61.667 C 382.404 60.399,379.391 49.366,378.985 47.833 C 378.133 44.614,377.956 44.142,377.544 43.985 C 376.893 43.737,367.288 43.791,366.942 44.044 M378.435 47.333 C 379.524 51.243,382.129 60.792,382.436 62.000 C 383.171 64.890,383.562 64.947,384.142 62.250 C 384.489 60.640,386.675 50.742,386.830 50.083 C 386.917 49.717,387.180 48.517,387.417 47.417 C 387.653 46.317,387.921 45.135,388.013 44.792 L 388.180 44.167 392.840 44.167 C 398.005 44.167,397.698 44.093,397.350 45.251 C 397.268 45.525,396.825 46.987,396.365 48.500 C 393.879 56.673,392.750 60.408,389.842 70.083 C 387.572 77.637,387.326 78.374,386.658 79.626 C 383.801 84.979,377.694 87.728,371.667 86.375 C 369.369 85.859,369.506 86.178,369.503 81.309 C 369.500 76.838,369.504 76.820,370.429 77.171 C 375.680 79.168,378.778 76.464,376.951 71.480 C 376.211 69.463,373.979 63.332,371.741 57.167 C 371.125 55.471,370.330 53.258,369.974 52.250 C 369.618 51.242,369.183 50.042,369.008 49.583 C 368.176 47.409,367.167 44.547,367.167 44.365 C 367.167 44.209,368.373 44.172,372.372 44.206 L 377.577 44.250 378.435 47.333 M7.666 49.708 C 7.665 50.098,7.558 51.129,7.428 52.000 C 7.112 54.119,7.022 55.954,6.665 67.583 C 6.572 70.608,6.418 74.021,6.322 75.167 C 5.995 79.064,5.842 81.412,5.668 85.167 C 5.572 87.229,5.421 90.304,5.332 92.000 C 5.243 93.696,5.170 96.058,5.170 97.250 C 5.170 98.442,5.096 100.692,5.005 102.250 C 4.914 103.808,4.757 106.621,4.655 108.500 C 4.553 110.379,4.401 112.892,4.316 114.083 C 4.232 115.275,4.117 117.161,4.060 118.274 L 3.956 120.297 4.429 120.607 C 4.884 120.905,5.844 120.917,30.409 120.933 C 44.438 120.943,55.392 120.896,54.750 120.829 C 54.108 120.763,42.893 120.699,29.827 120.687 L 6.071 120.667 5.327 120.292 L 4.583 119.917 4.584 117.750 C 4.584 114.989,4.794 109.220,4.999 106.324 C 5.087 105.091,5.237 101.871,5.334 99.167 C 5.430 96.462,5.660 91.625,5.843 88.417 C 6.027 85.208,6.250 81.196,6.339 79.500 C 6.428 77.804,6.530 76.267,6.565 76.083 C 6.601 75.900,6.678 74.063,6.735 72.000 C 6.865 67.398,6.983 64.948,7.186 62.667 C 7.272 61.704,7.379 59.567,7.425 57.917 C 7.470 56.267,7.580 54.429,7.669 53.833 C 7.874 52.464,7.964 49.000,7.794 49.000 C 7.724 49.000,7.666 49.319,7.666 49.708 M226.500 52.451 C 223.465 53.565,221.999 56.600,222.639 60.446 C 223.640 66.459,231.341 67.137,233.092 61.366 C 233.738 59.239,233.302 55.927,232.171 54.365 C 231.025 52.784,228.196 51.829,226.500 52.451 M261.954 52.660 C 259.293 53.700,258.667 54.747,258.667 58.155 L 258.667 60.876 259.202 61.813 C 262.070 66.836,267.898 66.319,269.691 60.883 C 271.395 55.719,266.753 50.785,261.954 52.660 M229.226 52.749 C 230.803 53.228,231.780 54.120,232.530 55.769 C 233.081 56.983,233.078 60.691,232.524 61.911 C 230.551 66.254,224.824 66.050,223.358 61.585 C 221.675 56.455,224.989 51.464,229.226 52.749 M265.033 52.677 C 271.478 53.968,270.887 64.933,264.369 64.991 C 260.687 65.023,258.158 60.624,259.069 55.769 C 259.421 53.893,262.677 52.205,265.033 52.677 M348.417 60.373 C 345.715 61.298,344.529 63.404,345.709 65.184 C 347.754 68.271,354.488 66.278,354.494 62.583 C 354.496 61.212,354.401 61.049,353.442 60.779 C 351.150 60.133,349.506 60.000,348.417 60.373 M352.813 60.851 C 353.917 61.198,353.913 61.193,353.961 62.518 C 354.040 64.697,352.641 65.934,349.533 66.431 C 346.030 66.991,344.326 62.995,347.310 61.218 C 348.547 60.481,351.099 60.311,352.813 60.851 M214.292 96.347 C 214.028 96.500,214.000 96.868,214.000 100.203 C 214.000 104.853,214.223 104.792,214.333 100.112 L 214.417 96.583 215.917 96.583 L 217.417 96.583 217.460 106.906 C 217.494 115.054,217.458 117.257,217.293 117.362 C 216.540 117.840,214.679 117.319,214.661 116.625 C 214.641 115.817,214.211 115.776,213.154 116.482 C 209.105 119.186,205.210 117.224,204.365 112.053 C 203.382 106.037,208.197 101.234,212.849 103.591 C 213.822 104.084,214.152 104.024,213.310 103.507 C 209.882 101.400,205.414 103.673,204.265 108.107 C 202.417 115.240,208.560 120.703,213.623 116.430 L 214.162 115.974 214.349 116.445 C 214.678 117.276,214.775 117.413,215.183 117.623 C 215.767 117.923,217.252 117.891,217.571 117.571 C 217.916 117.227,217.976 96.709,217.633 96.367 C 217.386 96.119,214.710 96.103,214.292 96.347 M339.867 96.367 C 339.472 96.762,339.590 117.447,339.989 117.661 C 340.521 117.946,342.930 117.879,343.238 117.571 C 343.583 117.227,343.643 96.709,343.300 96.367 C 343.174 96.240,342.541 96.167,341.583 96.167 C 340.626 96.167,339.993 96.240,339.867 96.367 M246.475 96.632 C 244.965 97.548,245.172 99.819,246.842 100.671 C 249.316 101.933,251.441 98.286,249.172 96.671 C 248.587 96.254,247.132 96.233,246.475 96.632 M191.972 96.621 C 190.752 96.700,190.969 96.354,189.077 101.250 C 188.651 102.350,187.938 104.188,187.491 105.333 C 183.657 115.156,182.833 117.303,182.833 117.465 C 182.833 117.736,183.829 117.881,185.169 117.805 C 186.874 117.709,186.909 117.662,188.338 113.678 C 188.776 112.458,188.596 112.505,192.833 112.505 C 197.635 112.504,197.094 112.255,198.059 114.916 C 199.048 117.644,199.132 117.731,200.852 117.809 C 203.508 117.930,203.508 117.922,201.084 112.083 C 200.801 111.402,200.089 109.585,197.428 102.753 C 196.179 99.547,195.103 96.875,195.037 96.815 C 194.866 96.661,193.087 96.549,191.972 96.621 M249.186 97.147 C 250.331 98.292,249.937 99.998,248.411 100.502 C 246.719 101.060,245.106 99.233,245.934 97.696 C 246.660 96.348,248.138 96.099,249.186 97.147 M275.989 96.703 C 275.523 96.876,275.479 117.122,275.943 117.586 C 276.241 117.884,279.318 117.905,279.611 117.611 C 279.688 117.535,279.773 115.867,279.801 113.903 L 279.852 110.333 281.718 110.333 C 287.735 110.333,290.571 108.094,290.579 103.333 C 290.586 99.757,289.107 97.798,285.750 96.938 C 284.675 96.662,276.621 96.468,275.989 96.703 M343.126 106.815 C 343.157 114.233,343.117 117.108,342.981 117.273 C 342.772 117.525,340.573 117.594,340.205 117.360 C 339.985 117.221,339.881 96.993,340.098 96.643 C 340.151 96.557,340.844 96.509,341.639 96.535 L 343.083 96.583 343.126 106.815 M194.906 97.210 C 195.041 97.417,196.027 99.836,197.096 102.585 C 203.629 119.389,203.070 117.398,201.274 117.466 C 199.334 117.538,199.264 117.470,198.147 114.425 C 197.305 112.129,197.788 112.333,193.204 112.336 C 188.012 112.339,188.616 112.018,187.403 115.417 C 186.712 117.353,186.493 117.525,184.794 117.465 C 183.087 117.405,183.091 117.417,184.002 115.047 C 184.382 114.059,184.979 112.500,185.329 111.583 C 185.679 110.667,186.198 109.354,186.482 108.667 C 186.766 107.979,186.999 107.363,186.999 107.297 C 187.000 107.231,187.180 106.781,187.399 106.297 C 187.619 105.813,187.922 105.048,188.073 104.598 C 188.224 104.147,188.710 102.872,189.153 101.764 C 189.595 100.656,190.129 99.300,190.339 98.750 C 191.126 96.689,190.932 96.833,192.917 96.833 C 194.542 96.833,194.676 96.859,194.906 97.210 M285.563 97.138 C 292.026 98.672,292.221 107.639,285.833 109.580 C 285.303 109.741,283.832 109.923,282.344 110.011 C 279.230 110.196,279.506 109.823,279.503 113.842 C 279.501 116.151,279.442 117.158,279.300 117.300 C 279.092 117.508,276.748 117.585,276.264 117.399 C 275.984 117.291,275.841 97.214,276.119 96.937 C 276.309 96.746,284.662 96.925,285.563 97.138 M279.677 99.904 C 279.449 100.179,279.490 106.880,279.722 107.111 C 280.336 107.726,284.542 107.214,285.625 106.393 C 287.639 104.868,287.279 101.193,285.004 100.042 C 284.081 99.574,280.038 99.470,279.677 99.904 M284.719 100.229 C 287.293 101.368,287.368 105.221,284.841 106.541 C 283.981 106.990,283.858 107.008,281.930 106.963 L 279.917 106.917 279.872 103.375 L 279.827 99.833 281.825 99.833 C 283.567 99.833,283.939 99.884,284.719 100.229 M193.177 101.360 C 193.168 101.614,193.776 103.336,195.257 107.250 C 195.569 108.075,195.845 108.938,195.871 109.167 L 195.917 109.583 193.038 109.629 C 190.620 109.667,190.144 109.635,190.065 109.428 C 189.988 109.229,191.047 106.021,191.664 104.583 C 191.998 103.803,192.667 101.894,192.667 101.719 C 192.667 101.614,192.760 101.490,192.875 101.444 C 193.014 101.388,192.998 101.355,192.826 101.346 C 192.647 101.337,192.378 101.871,191.932 103.125 C 191.582 104.110,190.964 105.779,190.558 106.833 C 190.153 107.888,189.806 108.975,189.786 109.250 L 189.750 109.750 192.917 109.750 L 196.083 109.750 196.068 109.164 C 196.045 108.305,193.205 100.638,193.177 101.360 M227.116 103.074 C 226.768 103.198,226.201 103.495,225.857 103.733 C 225.063 104.284,224.970 104.275,224.667 103.621 C 224.407 103.063,222.072 102.695,221.625 103.141 C 221.352 103.415,221.412 117.509,221.687 117.683 C 221.997 117.879,224.686 117.869,225.000 117.670 C 225.212 117.537,225.256 116.739,225.292 112.465 C 225.346 105.974,225.401 105.833,227.890 105.833 C 229.941 105.833,229.999 106.016,230.003 112.479 C 230.006 118.108,229.877 117.733,231.832 117.808 C 233.996 117.892,233.830 118.318,233.850 112.605 C 233.872 106.273,234.033 105.833,236.332 105.833 C 238.521 105.833,238.664 106.257,238.666 112.702 C 238.667 117.263,238.682 117.496,238.989 117.661 C 239.338 117.848,241.346 117.892,241.964 117.727 L 242.346 117.625 242.298 111.937 C 242.244 105.497,242.218 105.363,240.783 103.971 C 238.994 102.234,235.238 102.443,233.192 104.392 C 232.514 105.038,232.454 105.063,232.275 104.769 C 231.212 103.027,229.149 102.349,227.116 103.074 M254.500 102.990 L 253.583 103.083 253.540 110.355 L 253.497 117.627 253.873 117.728 C 254.686 117.946,256.801 117.842,257.071 117.571 C 257.298 117.345,257.333 116.622,257.333 112.190 L 257.333 107.071 258.273 106.452 C 259.811 105.440,261.849 105.610,262.495 106.804 C 262.686 107.158,262.748 108.296,262.792 112.333 C 262.858 118.262,262.705 117.833,264.756 117.833 C 266.826 117.833,266.706 118.199,266.627 112.139 C 266.555 106.599,266.483 106.120,265.507 104.646 C 264.115 102.544,260.230 102.183,257.886 103.936 C 257.187 104.460,257.049 104.439,256.769 103.770 C 256.431 102.962,256.053 102.832,254.500 102.990 M296.449 103.008 C 295.503 103.243,293.731 104.140,293.162 104.671 L 292.661 105.139 293.016 105.740 C 293.740 106.967,294.342 107.090,295.943 106.333 C 298.165 105.283,300.218 105.709,300.664 107.312 C 301.051 108.707,300.796 109.000,299.196 109.000 C 296.182 109.000,292.933 110.606,292.232 112.442 C 290.580 116.767,295.950 119.641,300.136 116.672 L 301.073 116.007 301.411 116.711 C 301.921 117.770,303.832 118.270,304.356 117.481 C 304.659 117.025,304.436 107.020,304.102 106.134 C 303.135 103.562,299.762 102.183,296.449 103.008 M313.799 103.059 C 313.460 103.185,312.816 103.524,312.368 103.811 C 311.439 104.407,311.167 104.458,311.167 104.037 C 311.167 103.159,308.382 102.414,307.916 103.167 C 307.859 103.259,307.819 106.503,307.826 110.376 C 307.841 118.547,307.655 117.833,309.770 117.833 C 311.803 117.833,311.667 118.235,311.667 112.250 C 311.667 106.630,311.586 107.037,312.857 106.235 C 313.577 105.781,315.681 105.661,316.179 106.047 C 317.056 106.725,317.080 106.881,317.136 112.406 C 317.174 116.156,317.243 117.612,317.386 117.703 C 317.621 117.852,319.924 117.871,320.458 117.728 L 320.833 117.628 320.833 112.237 C 320.833 105.504,320.537 104.475,318.261 103.289 C 317.398 102.840,314.754 102.704,313.799 103.059 M328.156 103.052 C 323.834 104.267,321.897 109.411,324.023 114.025 C 325.909 118.116,331.969 119.233,335.958 116.225 C 336.662 115.694,336.657 115.190,335.939 114.429 C 335.237 113.685,334.870 113.677,333.394 114.371 C 330.385 115.787,327.243 114.509,327.118 111.818 L 327.083 111.083 331.657 111.039 C 336.997 110.987,336.833 111.036,336.833 109.482 C 336.833 104.701,332.833 101.737,328.156 103.052 M230.750 103.586 C 231.117 103.807,231.604 104.251,231.833 104.573 C 232.355 105.305,232.713 105.316,233.327 104.616 C 235.064 102.638,239.064 102.546,240.866 104.443 C 242.011 105.649,242.078 106.042,242.135 111.846 C 242.196 117.977,242.332 117.538,240.397 117.466 L 239.096 117.417 238.979 116.840 C 238.914 116.522,238.854 114.248,238.845 111.786 C 238.824 106.111,238.577 105.500,236.306 105.500 C 233.986 105.500,233.673 106.276,233.669 112.031 C 233.666 117.820,233.763 117.527,231.877 117.465 L 230.417 117.417 230.325 112.167 C 230.275 109.279,230.218 106.901,230.200 106.881 C 230.182 106.861,229.937 106.584,229.657 106.265 C 228.741 105.221,226.759 105.297,225.568 106.421 L 225.000 106.956 225.000 112.028 C 225.000 115.751,224.947 117.153,224.800 117.300 C 224.533 117.567,222.134 117.567,221.867 117.300 C 221.569 117.002,221.581 103.848,221.880 103.439 C 222.279 102.893,223.997 103.123,224.414 103.778 C 224.888 104.524,225.150 104.535,226.241 103.858 C 227.757 102.917,229.470 102.814,230.750 103.586 M245.944 103.111 C 245.625 103.431,245.829 117.486,246.156 117.661 C 246.688 117.946,249.097 117.879,249.405 117.571 C 249.748 117.228,249.807 103.540,249.467 103.200 C 249.253 102.987,246.147 102.908,245.944 103.111 M317.982 103.450 C 320.206 104.452,320.555 105.579,320.629 112.012 C 320.698 117.955,320.830 117.538,318.898 117.466 C 317.261 117.404,317.371 117.790,317.350 112.036 C 317.332 107.122,317.281 106.789,316.424 106.000 C 315.441 105.095,313.055 105.491,311.774 106.772 L 311.333 107.212 311.333 112.270 L 311.333 117.327 310.955 117.422 C 310.747 117.474,310.054 117.494,309.415 117.467 L 308.255 117.417 308.137 116.750 C 307.992 115.926,307.999 104.440,308.146 103.750 C 308.244 103.286,308.311 103.246,309.073 103.198 C 310.288 103.121,310.616 103.252,310.854 103.911 C 311.116 104.636,311.410 104.753,311.973 104.356 C 313.819 103.056,316.283 102.685,317.982 103.450 M333.262 103.656 C 335.438 104.657,336.961 107.639,336.484 109.967 C 336.319 110.776,336.496 110.746,331.584 110.799 C 326.370 110.855,326.508 110.817,326.825 112.121 C 327.469 114.763,330.272 115.933,333.083 114.732 C 335.145 113.851,334.938 113.879,335.494 114.411 C 337.879 116.696,330.978 118.747,327.170 116.885 C 322.171 114.441,322.241 105.865,327.278 103.637 C 329.010 102.871,331.574 102.879,333.262 103.656 M249.250 110.333 L 249.250 117.417 247.750 117.417 L 246.250 117.417 246.141 116.083 C 245.987 114.205,246.054 103.628,246.222 103.369 C 246.322 103.214,246.766 103.168,247.805 103.202 L 249.250 103.250 249.250 110.333 M256.119 103.300 C 256.230 103.371,256.437 103.707,256.579 104.048 C 256.881 104.771,256.903 104.776,257.667 104.307 C 261.071 102.217,264.426 102.796,265.766 105.704 L 266.248 106.750 266.305 111.776 C 266.375 117.875,266.477 117.531,264.616 117.465 L 263.250 117.417 263.166 112.417 C 263.075 106.995,263.061 106.911,262.085 106.000 C 261.084 105.066,257.838 105.711,257.224 106.966 C 257.148 107.122,257.047 109.537,257.001 112.333 L 256.917 117.417 255.424 117.417 L 253.932 117.417 253.792 116.750 C 253.617 115.912,253.702 103.657,253.885 103.375 C 254.034 103.145,255.782 103.086,256.119 103.300 M301.452 103.596 C 303.873 104.897,304.167 105.822,304.167 112.140 C 304.167 117.640,304.196 117.500,303.063 117.500 C 302.335 117.500,302.337 117.502,301.351 116.179 L 301.050 115.775 299.983 116.475 C 296.360 118.856,292.292 117.500,292.292 113.913 C 292.292 111.202,294.637 109.622,299.250 109.226 C 301.016 109.074,301.478 108.257,300.682 106.696 C 300.075 105.506,297.902 105.174,296.083 105.994 C 294.674 106.629,294.421 106.666,293.855 106.322 C 292.775 105.665,292.935 104.925,294.319 104.188 C 296.486 103.033,299.881 102.751,301.452 103.596 M210.024 105.668 C 207.355 106.807,206.676 112.922,209.025 114.659 C 210.303 115.604,212.771 115.165,213.930 113.787 C 214.435 113.186,214.558 107.752,214.087 106.841 C 213.560 105.821,211.237 105.151,210.024 105.668 M329.019 105.621 C 328.001 105.813,326.468 108.034,326.991 108.558 C 327.244 108.811,332.259 108.924,332.833 108.691 C 333.139 108.566,332.442 108.518,330.208 108.511 L 327.167 108.500 327.167 108.108 C 327.167 107.892,327.337 107.463,327.546 107.154 C 329.088 104.865,333.333 105.565,333.333 108.108 C 333.333 108.384,333.393 108.504,333.482 108.408 C 334.006 107.851,332.783 105.974,331.700 105.673 C 331.087 105.503,329.778 105.477,329.019 105.621 M213.001 106.167 C 213.963 106.658,214.000 106.810,214.000 110.308 L 214.000 113.470 213.480 113.908 C 210.018 116.821,206.732 113.329,208.156 108.250 C 208.763 106.084,210.975 105.134,213.001 106.167 M297.833 111.430 C 295.593 112.020,294.696 113.312,295.669 114.549 C 297.116 116.388,301.000 114.890,301.000 112.493 C 301.000 111.107,300.147 110.821,297.833 111.430 M300.831 112.042 C 300.825 114.013,299.764 115.000,297.653 115.000 C 295.038 115.000,294.688 112.683,297.186 111.911 C 297.679 111.759,298.158 111.610,298.250 111.580 C 298.342 111.550,298.960 111.520,299.625 111.513 L 300.833 111.500 300.831 112.042 M129.567 120.358 C 129.252 120.713,129.252 120.714,129.625 120.518 C 129.831 120.410,130.000 120.249,130.000 120.161 C 130.000 119.924,129.920 119.960,129.567 120.358 " stroke="none" fill="#989898" fill-rule="evenodd"></path></g></svg>